<svg xmlns="http://www.w3.org/2000/svg" viewBox="0 0 47.99998 60" x="0px" y="0px">
    <path d="M31,24.14719a6.9566,6.9566,0,0,0,.84344,3.32843l-5.67157,5.67157H21.8281l-5.67157-5.67157A6.95631,6.95631,0,0,0,17,24.14732c-.32721-9.26227-13.67133-9.26465-14-.00013a6.9978,6.9978,0,0,0,10.32843,6.15656l2.84344,2.84344H13v12H35v-12H31.8281l2.84345-2.84344A6.9978,6.9978,0,0,0,45,24.14732C44.67277,14.88505,31.32865,14.88267,31,24.14719Zm-21-3a3.00019,3.00019,0,0,1,.00012,6A3.00019,3.00019,0,0,1,10,21.14719Zm21,20H17v-4H31Zm7.00012-14a3.00019,3.00019,0,0,1-.00012-6A3.00019,3.00019,0,0,1,38.0001,27.14719Z" fill="#0fcc20"/><polygon points="33.679 5.053 27.919 7.983 24 2.853 20.081 7.983 14.32 5.054 13.023 11.383 9.188 11.301 9.102 15.3 16.272 15.454 17.186 10.998 21.237 13.058 24 9.442 26.763 13.058 30.814 10.998 31.727 15.454 38.898 15.299 38.811 11.3 34.976 11.383 33.679 5.053" fill="#0fcc20"/>
</svg>