<svg xmlns="http://www.w3.org/2000/svg" xmlns:xlink="http://www.w3.org/1999/xlink" version="1.1" x="0px" y="0px" style="enable-background:new 0 0 100 100;" xml:space="preserve" viewBox="14.11 10.7 71.77 78.6">
    <path fill="#0000000" d="M49,79.2h1.9v1.9H49V79.2z M50.9,74.4H49v1.9h1.9V74.4z M50,82.1c-2,0-3.6,1.6-3.6,3.6s1.6,3.6,3.6,3.6c2,0,3.6-1.6,3.6-3.6  S51.9,82.1,50,82.1z M50.9,18.5H49v1.9h1.9V18.5z M49,25.2h1.9v-1.9H49V25.2z M50,17.9c2,0,3.6-1.6,3.6-3.6s-1.6-3.6-3.6-3.6  c-2,0-3.6,1.6-3.6,3.6S48,17.9,50,17.9z M77.1,64.8l-1,1.7l1.7,1l1-1.7L77.1,64.8z M68.8,60l1.7,1l-1,1.7l-1.7-1l0.3-0.5l-17.3,10  v0.4h-0.7L50,71.7l-0.2-0.1H49v-0.4l-17.1-9.9l0.2,0.4l-1.7,1l-1-1.7l1.7-1l0.4,0.6V41.1l-1.1-0.6l1-1.7l0.9,0.5L49,29.6v-1.6h1.9  v1.6l16.8,9.7l1-0.5l1,1.7l-1.2,0.7v19.7L68.8,60z M66.5,40.8L50,31.3l-16.5,9.5v19.1L50,69.5l16.5-9.5V40.8z M72,64l1.7,1l1-1.7  l-1.7-1L72,64z M84.1,65.7c-1.7-1-3.9-0.4-4.9,1.3c-1,1.7-0.4,3.9,1.3,4.9c1.7,1,3.9,0.4,4.9-1.3S85.8,66.7,84.1,65.7z M26.3,38  l1.7,1l1-1.7l-1.7-1L26.3,38z M22.2,35.7l1.7,1l1-1.7l-1.7-1L22.2,35.7z M15.9,35.1c1.7,1,3.9,0.4,4.9-1.3c1-1.7,0.4-3.9-1.3-4.9  c-1.7-1-3.9-0.4-4.9,1.3C13.6,31.9,14.2,34.1,15.9,35.1z M21.2,65.7l1,1.7l1.7-1l-1-1.7L21.2,65.7z M25.4,63.3l1,1.7l1.7-1l-1-1.7  L25.4,63.3z M15.9,65.7c-1.7,1-2.3,3.2-1.3,4.9s3.2,2.3,4.9,1.3c1.7-1,2.3-3.2,1.3-4.9C19.9,65.3,17.7,64.8,15.9,65.7z M73.7,38  l-1-1.7l-1.7,1l1,1.7L73.7,38z M77.8,35.7l-1-1.7l-1.7,1l1,1.7L77.8,35.7z M84.1,35.1c1.7-1,2.3-3.2,1.3-4.9c-1-1.7-3.2-2.3-4.9-1.3  c-1.7,1-2.3,3.2-1.3,4.9C80.1,35.5,82.3,36.1,84.1,35.1z M40,43.7l10,5.8l10-5.8l-10-5.8L40,43.7z M39.2,56.6l9.9,5.7V51.1l-9.9-5.7  V56.6z M51,62.3l9.8-5.6V45.5L51,51.1V62.3z"/>
</svg>